<svg xmlns="http://www.w3.org/2000/svg" xmlns:xlink="http://www.w3.org/1999/xlink" width="3651" zoomAndPan="magnify" viewBox="0 0 2738.25 528.000001" height="704" preserveAspectRatio="xMidYMid meet" version="1.0"><defs><g/></defs><g fill="#ffffff" fill-opacity="1"><g transform="translate(74.375589, 416.235789)"><g><path d="M 133.347656 -145.46875 L 30.0625 -145.46875 L 30.0625 0 L 54.792969 0 L 54.792969 -47.277344 L 133.347656 -47.277344 C 171.414062 -47.277344 189.597656 -60.855469 189.597656 -95.28125 L 189.597656 -102.3125 C 189.597656 -126.316406 179.65625 -145.46875 133.347656 -145.46875 Z M 164.382812 -95.28125 C 164.382812 -78.070312 157.351562 -71.523438 129.710938 -71.523438 L 54.792969 -71.523438 L 54.792969 -121.226562 L 129.710938 -121.226562 C 156.136719 -121.226562 164.382812 -116.617188 164.382812 -102.3125 Z M 164.382812 -95.28125 "/></g></g></g><g fill="#ffffff" fill-opacity="1"><g transform="translate(278.518828, 416.235789)"><g><path d="M 121.953125 -123.40625 C 92.859375 -123.40625 65.945312 -110.800781 50.1875 -89.222656 L 50.1875 -160.015625 L 25.941406 -160.015625 L 25.941406 0 L 50.1875 0 L 50.1875 -42.671875 C 50.1875 -69.824219 79.765625 -101.828125 121.46875 -101.828125 C 151.289062 -101.828125 173.351562 -89.707031 173.351562 -57.21875 L 173.351562 0 L 198.082031 0 L 198.082031 -62.308594 C 198.082031 -105.464844 168.261719 -123.40625 121.953125 -123.40625 Z M 121.953125 -123.40625 "/></g></g></g><g fill="#ffffff" fill-opacity="1"><g transform="translate(499.87603, 416.235789)"><g><path d="M 100.375 2.425781 C 153.957031 2.425781 183.777344 -17.941406 183.777344 -57.460938 L 183.777344 -65.21875 C 183.777344 -105.464844 153.957031 -123.40625 100.375 -123.40625 C 46.792969 -123.40625 16.972656 -105.222656 16.972656 -64.492188 L 16.972656 -56.492188 C 16.972656 -16.972656 46.792969 2.425781 100.375 2.425781 Z M 100.375 -19.882812 C 60.855469 -19.882812 41.703125 -28.851562 41.703125 -56.492188 L 41.703125 -64.492188 C 41.703125 -92.132812 61.582031 -101.101562 100.375 -101.101562 C 141.105469 -101.101562 159.046875 -93.34375 159.046875 -65.21875 L 159.046875 -57.460938 C 159.046875 -29.335938 140.378906 -19.882812 100.375 -19.882812 Z M 100.375 -19.882812 "/></g></g></g><g fill="#ffffff" fill-opacity="1"><g transform="translate(700.624996, 416.235789)"><g><path d="M 121.953125 -123.40625 C 92.859375 -123.40625 65.945312 -110.800781 50.1875 -89.222656 L 50.1875 -121.226562 L 25.941406 -121.226562 L 25.941406 0 L 50.1875 0 L 50.1875 -42.671875 C 50.1875 -69.824219 79.765625 -101.828125 121.46875 -101.828125 C 151.289062 -101.828125 173.351562 -89.707031 173.351562 -57.21875 L 173.351562 0 L 198.082031 0 L 198.082031 -62.308594 C 198.082031 -105.464844 168.261719 -123.40625 121.953125 -123.40625 Z M 121.953125 -123.40625 "/></g></g></g><g fill="#ffffff" fill-opacity="1"><g transform="translate(921.982175, 416.235789)"><g><path d="M 97.949219 2.425781 C 151.53125 2.425781 176.261719 -18.425781 176.988281 -43.398438 L 152.257812 -43.398438 C 149.351562 -28.609375 136.742188 -18.425781 97.949219 -18.425781 C 61.339844 -18.425781 43.15625 -30.792969 41.214844 -51.398438 C 58.914062 -48.976562 87.039062 -46.792969 100.375 -46.792969 C 125.589844 -46.792969 174.808594 -52.371094 174.808594 -83.886719 L 174.808594 -87.039062 C 174.808594 -111.285156 146.683594 -123.40625 100.617188 -123.40625 C 35.882812 -123.40625 16.972656 -97.464844 16.972656 -64.976562 L 16.972656 -56.007812 C 16.972656 -24.246094 37.09375 2.425781 97.949219 2.425781 Z M 100.617188 -68.855469 C 88.738281 -68.855469 60.613281 -70.3125 41.703125 -72.976562 C 41.703125 -88.738281 54.792969 -101.828125 100.617188 -101.828125 C 143.289062 -101.828125 150.078125 -95.039062 150.078125 -86.554688 L 150.078125 -86.3125 C 150.078125 -76.613281 146.683594 -68.855469 100.617188 -68.855469 Z M 100.617188 -68.855469 "/></g></g></g><g fill="#ffffff" fill-opacity="1"><g transform="translate(1115.942548, 416.235789)"><g/></g></g><g fill="#ffffff" fill-opacity="1"><g transform="translate(1212.922689, 416.235789)"><g><path d="M 248.753906 -145.46875 L 213.597656 -145.46875 L 138.925781 -24.246094 L 65.21875 -145.46875 L 30.0625 -145.46875 L 30.0625 0 L 54.792969 0 L 54.792969 -114.679688 L 124.378906 -0.484375 L 123.890625 0 L 153.714844 0 L 153.472656 -0.484375 L 224.023438 -115.164062 L 224.023438 0 L 248.753906 0 Z M 248.753906 -145.46875 "/></g></g></g><g fill="#ffffff" fill-opacity="1"><g transform="translate(1491.740589, 416.235789)"><g><path d="M 138.683594 -121.226562 L 85.101562 -24.488281 L 32.003906 -121.226562 L 4.121094 -121.226562 L 71.523438 0 L 67.886719 6.789062 C 62.550781 16.488281 53.582031 18.425781 47.761719 18.425781 C 41.945312 18.425781 34.914062 17.699219 28.609375 14.789062 L 20.851562 36.609375 C 26.667969 39.277344 36.125 41.214844 47.761719 41.214844 C 67.886719 41.214844 80.734375 35.398438 94.070312 11.152344 L 166.5625 -121.226562 Z M 138.683594 -121.226562 "/></g></g></g><g fill="#ffffff" fill-opacity="1"><g transform="translate(1662.425647, 416.235789)"><g><path d="M 100.132812 -122.921875 C 36.125 -122.921875 26.183594 -95.28125 26.183594 -79.28125 L 50.914062 -79.28125 C 50.914062 -93.101562 59.886719 -101.101562 100.132812 -101.101562 C 148.621094 -101.101562 150.804688 -86.554688 150.804688 -81.949219 C 150.804688 -79.039062 135.289062 -76.371094 87.765625 -72.734375 C 43.882812 -69.339844 21.820312 -63.039062 21.820312 -34.1875 L 21.820312 -30.546875 C 21.820312 -18.183594 29.09375 2.425781 80.980469 2.425781 C 122.679688 2.425781 142.5625 -6.789062 151.53125 -16.246094 C 151.53125 -9.214844 152.257812 -4.121094 153.230469 0 L 177.957031 0 C 175.777344 -10.667969 175.535156 -15.515625 175.535156 -25.941406 L 175.535156 -82.675781 C 175.535156 -89.707031 172.382812 -122.921875 100.132812 -122.921875 Z M 80.980469 -19.394531 C 50.429688 -19.394531 46.550781 -24.972656 46.550781 -32.972656 L 46.550781 -34.1875 C 46.550781 -42.1875 49.460938 -48.246094 82.917969 -50.914062 C 91.644531 -51.640625 98.921875 -52.371094 107.40625 -52.855469 C 120.253906 -53.582031 138.195312 -55.765625 151.046875 -58.1875 L 151.046875 -54.308594 C 151.046875 -32.488281 131.652344 -19.394531 80.980469 -19.394531 Z M 80.980469 -19.394531 "/></g></g></g><g fill="#ffffff" fill-opacity="1"><g transform="translate(1864.144424, 416.235789)"><g><path d="M 91.890625 -20.851562 C 86.796875 -19.882812 80.492188 -19.152344 72.734375 -19.152344 C 61.097656 -19.152344 48.488281 -24.730469 48.488281 -41.703125 L 48.488281 -99.40625 L 93.585938 -99.40625 L 93.585938 -121.226562 L 48.488281 -121.226562 L 48.488281 -145.46875 L 24.246094 -145.46875 L 24.246094 -121.226562 L 8.726562 -121.226562 L 8.726562 -99.40625 L 24.246094 -99.40625 L 24.246094 -41.703125 C 24.246094 -26.183594 28.125 2.425781 72.25 2.425781 C 80.980469 2.425781 89.222656 0.96875 97.222656 -1.941406 Z M 91.890625 -20.851562 "/></g></g></g><g fill="#ffffff" fill-opacity="1"><g transform="translate(1967.185777, 416.235789)"><g/></g></g><g fill="#ffffff" fill-opacity="1"><g transform="translate(2064.165917, 416.235789)"><g><path d="M 165.59375 -145.46875 L -0.726562 -145.46875 L -0.726562 -121.710938 L 70.066406 -121.710938 L 70.066406 0 L 94.796875 0 L 94.796875 -121.710938 L 165.59375 -121.710938 Z M 165.59375 -145.46875 "/></g></g></g><g fill="#ffffff" fill-opacity="1"><g transform="translate(2228.789668, 416.235789)"><g><path d="M 162.925781 -121.226562 L 162.925781 -78.554688 C 162.925781 -51.398438 133.347656 -19.636719 98.675781 -19.636719 C 67.160156 -19.636719 48.976562 -28.125 48.976562 -63.28125 L 48.976562 -121.226562 L 24.246094 -121.226562 L 24.246094 -55.519531 C 24.246094 -16 54.066406 5.578125 98.675781 2.183594 C 125.105469 0 148.621094 -11.152344 162.925781 -30.792969 L 162.925781 0 L 187.171875 0 L 187.171875 -121.226562 Z M 162.925781 -121.226562 "/></g></g></g><g fill="#ffffff" fill-opacity="1"><g transform="translate(2441.90349, 416.235789)"><g><path d="M 121.953125 -123.40625 C 92.859375 -123.40625 65.945312 -110.800781 50.1875 -89.222656 L 50.1875 -121.226562 L 25.941406 -121.226562 L 25.941406 0 L 50.1875 0 L 50.1875 -42.671875 C 50.1875 -69.824219 79.765625 -101.828125 121.46875 -101.828125 C 151.289062 -101.828125 173.351562 -89.707031 173.351562 -57.21875 L 173.351562 0 L 198.082031 0 L 198.082031 -62.308594 C 198.082031 -105.464844 168.261719 -123.40625 121.953125 -123.40625 Z M 121.953125 -123.40625 "/></g></g></g><g fill="#ffffff" fill-opacity="1"><g transform="translate(520.851126, 199.517002)"><g><path d="M 104.972656 -60.199219 L 112.757812 -60.199219 C 112.757812 -82.359375 96.136719 -91.195312 63.941406 -91.195312 C 25.757812 -91.195312 12.128906 -81.613281 12.128906 -69.183594 L 12.128906 -65.886719 C 12.128906 -50.613281 24.707031 -45.824219 60.648438 -42.078125 C 95.988281 -38.484375 104.074219 -34.292969 104.074219 -24.558594 L 104.074219 -21.863281 C 104.074219 -11.679688 88.648438 -5.988281 60.796875 -5.988281 C 32.945312 -5.988281 19.765625 -12.429688 19.765625 -31.148438 L 11.980469 -31.148438 C 11.980469 -8.984375 25.605469 1.496094 60.796875 1.496094 C 98.382812 1.496094 111.859375 -8.535156 111.859375 -20.964844 L 111.859375 -24.257812 C 111.859375 -40.730469 99.28125 -45.375 61.546875 -49.265625 C 28.003906 -52.710938 19.917969 -57.054688 19.917969 -65.589844 L 19.917969 -68.285156 C 19.917969 -78.316406 35.039062 -83.707031 63.941406 -83.707031 C 91.496094 -83.707031 104.972656 -77.417969 104.972656 -60.199219 Z M 104.972656 -60.199219 "/></g></g></g><g fill="#ffffff" fill-opacity="1"><g transform="translate(645.583257, 199.517002)"><g><path d="M 58.25 1.496094 C 91.34375 1.496094 106.019531 -12.578125 106.019531 -35.191406 L 106.019531 -40.582031 C 106.019531 -63.191406 91.34375 -76.222656 58.25 -76.222656 C 25.15625 -76.222656 10.480469 -63.042969 10.480469 -40.132812 L 10.480469 -34.589844 C 10.480469 -11.980469 25.15625 1.496094 58.25 1.496094 Z M 58.25 -5.691406 C 30.847656 -5.691406 18.269531 -14.824219 18.269531 -34.589844 L 18.269531 -40.132812 C 18.269531 -59.898438 30.847656 -69.035156 58.25 -69.035156 C 85.953125 -69.035156 98.234375 -60.199219 98.234375 -40.582031 L 98.234375 -35.191406 C 98.234375 -15.125 85.503906 -5.691406 58.25 -5.691406 Z M 58.25 -5.691406 "/></g></g></g><g fill="#ffffff" fill-opacity="1"><g transform="translate(762.079783, 199.517002)"><g><path d="M 44.175781 -93.441406 C 49.417969 -93.441406 55.257812 -92.691406 59.898438 -91.496094 L 61.695312 -97.636719 C 56.753906 -99.433594 51.511719 -100.332031 44.175781 -100.332031 C 23.359375 -100.332031 17.820312 -88.5 17.371094 -74.875 L -0.449219 -74.875 L -0.449219 -67.984375 L 17.371094 -67.984375 L 17.371094 0 L 24.859375 0 L 24.859375 -67.984375 L 53.460938 -67.984375 L 53.460938 -74.875 L 24.859375 -74.875 C 25.308594 -87.75 30.25 -93.441406 44.175781 -93.441406 Z M 44.175781 -93.441406 "/></g></g></g><g fill="#ffffff" fill-opacity="1"><g transform="translate(815.236919, 199.517002)"><g><path d="M 58.25 -7.636719 C 53.609375 -6.4375 49.265625 -5.691406 44.925781 -5.691406 C 28.902344 -5.691406 26.207031 -15.125 26.207031 -25.757812 L 26.207031 -67.984375 L 57.800781 -67.984375 L 57.800781 -74.875 L 26.207031 -74.875 L 26.207031 -89.847656 L 18.71875 -89.847656 L 18.71875 -74.875 L 5.390625 -74.875 L 5.390625 -67.984375 L 18.71875 -67.984375 L 18.71875 -25.757812 C 18.71875 -16.171875 19.167969 1.496094 44.925781 1.496094 C 50.015625 1.496094 55.105469 0.597656 60.046875 -1.199219 Z M 58.25 -7.636719 "/></g></g></g><g fill="#ffffff" fill-opacity="1"><g transform="translate(878.875768, 199.517002)"><g><path d="M 136.121094 -74.875 L 107.667969 -8.683594 L 77.867188 -74.875 L 69.183594 -74.875 L 39.382812 -8.683594 L 10.929688 -74.875 L 2.695312 -74.875 L 34.890625 0 L 43.578125 0 L 73.527344 -66.488281 L 103.476562 0 L 112.160156 0 L 144.355469 -74.875 Z M 136.121094 -74.875 "/></g></g></g><g fill="#ffffff" fill-opacity="1"><g transform="translate(1026.068636, 199.517002)"><g><path d="M 58.101562 -76.222656 C 29.050781 -76.222656 16.171875 -65.886719 16.171875 -48.519531 L 23.960938 -48.519531 C 23.960938 -62.292969 34.441406 -69.183594 58.101562 -69.183594 C 82.359375 -69.183594 93.144531 -60.648438 93.144531 -50.613281 C 93.144531 -44.476562 80.5625 -43.726562 50.765625 -41.480469 C 22.613281 -39.382812 13.476562 -35.488281 13.476562 -21.113281 L 13.476562 -17.96875 C 13.476562 -5.839844 21.265625 1.496094 46.273438 1.496094 C 70.082031 1.496094 85.953125 -5.390625 93.144531 -15.425781 C 93.144531 -10.332031 93.292969 -5.089844 94.191406 0 L 101.976562 0 C 101.078125 -5.390625 100.929688 -10.632812 100.929688 -16.023438 L 100.929688 -49.117188 C 100.929688 -62.742188 89.25 -76.222656 58.101562 -76.222656 Z M 46.273438 -5.539062 C 26.804688 -5.539062 21.265625 -10.332031 21.265625 -18.417969 L 21.265625 -20.816406 C 21.265625 -29.050781 26.804688 -32.644531 47.019531 -34.292969 C 51.664062 -34.742188 56.15625 -35.039062 60.648438 -35.339844 C 74.574219 -36.238281 87.152344 -37.285156 93.144531 -40.28125 L 93.292969 -34.292969 C 93.292969 -16.773438 77.71875 -5.539062 46.273438 -5.539062 Z M 46.273438 -5.539062 "/></g></g></g><g fill="#ffffff" fill-opacity="1"><g transform="translate(1142.714886, 199.517002)"><g><path d="M 64.539062 -76.371094 C 43.875 -75.773438 30.25 -67.535156 23.511719 -53.910156 L 23.511719 -74.875 L 16.023438 -74.875 L 16.023438 0 L 23.511719 0 L 23.511719 -30.097656 C 23.511719 -52.859375 37.585938 -69.183594 66.335938 -69.183594 C 70.980469 -69.183594 74.125 -69.035156 77.269531 -68.734375 L 77.71875 -75.773438 C 74.722656 -76.222656 70.832031 -76.519531 64.539062 -76.371094 Z M 64.539062 -76.371094 "/></g></g></g><g fill="#ffffff" fill-opacity="1"><g transform="translate(1223.423909, 199.517002)"><g><path d="M 56.753906 1.496094 C 84.15625 1.496094 100.480469 -9.132812 102.277344 -26.804688 L 94.339844 -26.804688 C 92.542969 -12.429688 78.46875 -5.390625 56.753906 -5.390625 C 31.445312 -5.390625 17.222656 -14.824219 18.269531 -36.238281 C 31.445312 -33.992188 46.273438 -32.644531 58.25 -32.644531 C 81.3125 -32.644531 100.480469 -38.335938 100.480469 -52.113281 L 100.480469 -55.257812 C 100.480469 -68.285156 84.15625 -76.222656 58.402344 -76.222656 C 25.15625 -76.222656 10.480469 -62.742188 10.480469 -40.132812 L 10.480469 -34.589844 C 10.480469 -11.980469 25.15625 1.496094 56.753906 1.496094 Z M 58.402344 -39.53125 C 45.824219 -39.53125 30.25 -41.03125 18.269531 -43.128906 C 19.316406 -59.75 30.847656 -69.183594 58.402344 -69.183594 C 82.0625 -69.183594 92.691406 -63.34375 92.691406 -54.957031 L 92.691406 -52.5625 C 92.691406 -42.527344 76.96875 -39.53125 58.402344 -39.53125 Z M 58.402344 -39.53125 "/></g></g></g><g fill="#ffffff" fill-opacity="1"><g transform="translate(1336.176936, 199.517002)"><g/></g></g><g fill="#ffffff" fill-opacity="1"><g transform="translate(1396.072345, 199.517002)"><g><path d="M 105.722656 -82.960938 L 105.722656 -89.847656 L 18.570312 -89.847656 L 18.570312 0 L 105.722656 0 L 105.722656 -6.886719 L 26.355469 -6.886719 L 26.355469 -40.28125 L 100.179688 -40.28125 L 100.179688 -47.171875 L 26.355469 -47.171875 L 26.355469 -82.960938 Z M 105.722656 -82.960938 "/></g></g></g><g fill="#ffffff" fill-opacity="1"><g transform="translate(1510.921719, 199.517002)"><g><path d="M 65.589844 -76.222656 C 43.875 -76.222656 30.25 -67.984375 23.511719 -54.359375 L 23.511719 -74.875 L 16.023438 -74.875 L 16.023438 0 L 23.511719 0 L 23.511719 -30.097656 C 23.511719 -52.859375 37.585938 -69.183594 65.589844 -69.183594 C 88.800781 -69.183594 101.078125 -60.199219 101.078125 -39.234375 L 101.078125 0 L 108.867188 0 L 108.867188 -40.582031 C 108.867188 -63.191406 94.191406 -76.222656 65.589844 -76.222656 Z M 65.589844 -76.222656 "/></g></g></g><g fill="#ffffff" fill-opacity="1"><g transform="translate(1634.156481, 199.517002)"><g><path d="M 95.238281 -74.875 L 95.238281 -59.449219 C 88.800781 -70.230469 75.921875 -76.222656 56.753906 -76.222656 C 25.15625 -76.222656 10.480469 -63.191406 10.480469 -40.582031 L 10.480469 -35.191406 C 10.480469 -12.578125 25.15625 1.496094 56.753906 1.496094 C 75.921875 1.496094 88.800781 -4.492188 95.238281 -15.273438 L 95.238281 -7.785156 C 95.238281 9.132812 82.660156 18.121094 55.257812 18.121094 C 39.53125 18.121094 29.050781 14.527344 21.414062 7.9375 L 16.621094 14.226562 C 25.457031 21.113281 37.4375 25.457031 55.257812 25.457031 C 91.34375 25.457031 102.726562 11.980469 102.726562 -7.785156 L 102.726562 -74.875 Z M 56.753906 -5.839844 C 30.996094 -5.839844 18.269531 -15.125 18.269531 -35.191406 L 18.269531 -40.582031 C 18.269531 -60.199219 30.546875 -68.882812 56.753906 -68.882812 C 79.664062 -68.882812 95.238281 -59.898438 95.238281 -40.132812 L 95.238281 -34.589844 C 95.238281 -14.824219 79.664062 -5.839844 56.753906 -5.839844 Z M 56.753906 -5.839844 "/></g></g></g><g fill="#ffffff" fill-opacity="1"><g transform="translate(1752.899126, 199.517002)"><g><path d="M 17.371094 -85.355469 C 21.113281 -85.355469 22.761719 -87.003906 22.761719 -89.699219 L 22.761719 -90.148438 C 22.761719 -92.84375 21.113281 -94.339844 17.371094 -94.339844 C 13.628906 -94.339844 11.980469 -92.84375 11.980469 -90.148438 L 11.980469 -89.546875 C 11.980469 -87.003906 13.628906 -85.355469 17.371094 -85.355469 Z M 13.476562 0 L 20.964844 0 L 20.964844 -74.875 L 13.476562 -74.875 Z M 13.476562 0 "/></g></g></g><g fill="#ffffff" fill-opacity="1"><g transform="translate(1787.338947, 199.517002)"><g><path d="M 65.589844 -76.222656 C 43.875 -76.222656 30.25 -67.984375 23.511719 -54.359375 L 23.511719 -74.875 L 16.023438 -74.875 L 16.023438 0 L 23.511719 0 L 23.511719 -30.097656 C 23.511719 -52.859375 37.585938 -69.183594 65.589844 -69.183594 C 88.800781 -69.183594 101.078125 -60.199219 101.078125 -39.234375 L 101.078125 0 L 108.867188 0 L 108.867188 -40.582031 C 108.867188 -63.191406 94.191406 -76.222656 65.589844 -76.222656 Z M 65.589844 -76.222656 "/></g></g></g><g fill="#ffffff" fill-opacity="1"><g transform="translate(1910.573709, 199.517002)"><g><path d="M 56.753906 1.496094 C 84.15625 1.496094 100.480469 -9.132812 102.277344 -26.804688 L 94.339844 -26.804688 C 92.542969 -12.429688 78.46875 -5.390625 56.753906 -5.390625 C 31.445312 -5.390625 17.222656 -14.824219 18.269531 -36.238281 C 31.445312 -33.992188 46.273438 -32.644531 58.25 -32.644531 C 81.3125 -32.644531 100.480469 -38.335938 100.480469 -52.113281 L 100.480469 -55.257812 C 100.480469 -68.285156 84.15625 -76.222656 58.402344 -76.222656 C 25.15625 -76.222656 10.480469 -62.742188 10.480469 -40.132812 L 10.480469 -34.589844 C 10.480469 -11.980469 25.15625 1.496094 56.753906 1.496094 Z M 58.402344 -39.53125 C 45.824219 -39.53125 30.25 -41.03125 18.269531 -43.128906 C 19.316406 -59.75 30.847656 -69.183594 58.402344 -69.183594 C 82.0625 -69.183594 92.691406 -63.34375 92.691406 -54.957031 L 92.691406 -52.5625 C 92.691406 -42.527344 76.96875 -39.53125 58.402344 -39.53125 Z M 58.402344 -39.53125 "/></g></g></g><g fill="#ffffff" fill-opacity="1"><g transform="translate(2023.326736, 199.517002)"><g><path d="M 56.753906 1.496094 C 84.15625 1.496094 100.480469 -9.132812 102.277344 -26.804688 L 94.339844 -26.804688 C 92.542969 -12.429688 78.46875 -5.390625 56.753906 -5.390625 C 31.445312 -5.390625 17.222656 -14.824219 18.269531 -36.238281 C 31.445312 -33.992188 46.273438 -32.644531 58.25 -32.644531 C 81.3125 -32.644531 100.480469 -38.335938 100.480469 -52.113281 L 100.480469 -55.257812 C 100.480469 -68.285156 84.15625 -76.222656 58.402344 -76.222656 C 25.15625 -76.222656 10.480469 -62.742188 10.480469 -40.132812 L 10.480469 -34.589844 C 10.480469 -11.980469 25.15625 1.496094 56.753906 1.496094 Z M 58.402344 -39.53125 C 45.824219 -39.53125 30.25 -41.03125 18.269531 -43.128906 C 19.316406 -59.75 30.847656 -69.183594 58.402344 -69.183594 C 82.0625 -69.183594 92.691406 -63.34375 92.691406 -54.957031 L 92.691406 -52.5625 C 92.691406 -42.527344 76.96875 -39.53125 58.402344 -39.53125 Z M 58.402344 -39.53125 "/></g></g></g><g fill="#ffffff" fill-opacity="1"><g transform="translate(2136.079763, 199.517002)"><g><path d="M 64.539062 -76.371094 C 43.875 -75.773438 30.25 -67.535156 23.511719 -53.910156 L 23.511719 -74.875 L 16.023438 -74.875 L 16.023438 0 L 23.511719 0 L 23.511719 -30.097656 C 23.511719 -52.859375 37.585938 -69.183594 66.335938 -69.183594 C 70.980469 -69.183594 74.125 -69.035156 77.269531 -68.734375 L 77.71875 -75.773438 C 74.722656 -76.222656 70.832031 -76.519531 64.539062 -76.371094 Z M 64.539062 -76.371094 "/></g></g></g></svg>