<svg xmlns="http://www.w3.org/2000/svg" xmlns:xlink="http://www.w3.org/1999/xlink" width="3561" zoomAndPan="magnify" viewBox="0 0 2670.75 579.000005" height="772" preserveAspectRatio="xMidYMid meet" version="1.0"><defs><g/></defs><g fill="#ffffff" fill-opacity="1"><g transform="translate(72.635579, 469.949008)"><g><path d="M 130.074219 -141.902344 L 29.328125 -141.902344 L 29.328125 0 L 53.449219 0 L 53.449219 -46.117188 L 130.074219 -46.117188 C 167.207031 -46.117188 184.945312 -59.363281 184.945312 -92.945312 L 184.945312 -99.804688 C 184.945312 -123.21875 175.246094 -141.902344 130.074219 -141.902344 Z M 160.347656 -92.945312 C 160.347656 -76.152344 153.488281 -69.769531 126.527344 -69.769531 L 53.449219 -69.769531 L 53.449219 -118.25 L 126.527344 -118.25 C 152.308594 -118.25 160.347656 -113.757812 160.347656 -99.804688 Z M 160.347656 -92.945312 "/></g></g></g><g fill="#ffffff" fill-opacity="1"><g transform="translate(271.769535, 469.949008)"><g><path d="M 118.960938 -120.378906 C 90.582031 -120.378906 64.328125 -108.082031 48.957031 -87.03125 L 48.957031 -156.089844 L 25.304688 -156.089844 L 25.304688 0 L 48.957031 0 L 48.957031 -41.625 C 48.957031 -68.113281 77.808594 -99.332031 118.488281 -99.332031 C 147.578125 -99.332031 169.097656 -87.503906 169.097656 -55.8125 L 169.097656 0 L 193.222656 0 L 193.222656 -60.78125 C 193.222656 -102.878906 164.132812 -120.378906 118.960938 -120.378906 Z M 118.960938 -120.378906 "/></g></g></g><g fill="#ffffff" fill-opacity="1"><g transform="translate(487.695062, 469.949008)"><g><path d="M 97.910156 2.363281 C 150.179688 2.363281 179.269531 -17.5 179.269531 -56.050781 L 179.269531 -63.617188 C 179.269531 -102.878906 150.179688 -120.378906 97.910156 -120.378906 C 45.644531 -120.378906 16.554688 -102.640625 16.554688 -62.910156 L 16.554688 -55.105469 C 16.554688 -16.554688 45.644531 2.363281 97.910156 2.363281 Z M 97.910156 -19.394531 C 59.363281 -19.394531 40.679688 -28.144531 40.679688 -55.105469 L 40.679688 -62.910156 C 40.679688 -89.871094 60.070312 -98.621094 97.910156 -98.621094 C 137.644531 -98.621094 155.144531 -91.054688 155.144531 -63.617188 L 155.144531 -56.050781 C 155.144531 -28.617188 136.933594 -19.394531 97.910156 -19.394531 Z M 97.910156 -19.394531 "/></g></g></g><g fill="#ffffff" fill-opacity="1"><g transform="translate(683.518012, 469.949008)"><g><path d="M 118.960938 -120.378906 C 90.582031 -120.378906 64.328125 -108.082031 48.957031 -87.03125 L 48.957031 -118.25 L 25.304688 -118.25 L 25.304688 0 L 48.957031 0 L 48.957031 -41.625 C 48.957031 -68.113281 77.808594 -99.332031 118.488281 -99.332031 C 147.578125 -99.332031 169.097656 -87.503906 169.097656 -55.8125 L 169.097656 0 L 193.222656 0 L 193.222656 -60.78125 C 193.222656 -102.878906 164.132812 -120.378906 118.960938 -120.378906 Z M 118.960938 -120.378906 "/></g></g></g><g fill="#ffffff" fill-opacity="1"><g transform="translate(899.443584, 469.949008)"><g><path d="M 95.546875 2.363281 C 147.8125 2.363281 171.9375 -17.972656 172.644531 -42.332031 L 148.523438 -42.332031 C 145.683594 -27.90625 133.386719 -17.972656 95.546875 -17.972656 C 59.835938 -17.972656 42.097656 -30.035156 40.207031 -50.136719 C 57.46875 -47.773438 84.902344 -45.644531 97.910156 -45.644531 C 122.507812 -45.644531 170.519531 -51.085938 170.519531 -81.828125 L 170.519531 -84.902344 C 170.519531 -108.554688 143.082031 -120.378906 98.148438 -120.378906 C 35.003906 -120.378906 16.554688 -95.074219 16.554688 -63.382812 L 16.554688 -54.632812 C 16.554688 -23.648438 36.183594 2.363281 95.546875 2.363281 Z M 98.148438 -67.167969 C 86.558594 -67.167969 59.125 -68.585938 40.679688 -71.1875 C 40.679688 -86.558594 53.449219 -99.332031 98.148438 -99.332031 C 139.773438 -99.332031 146.394531 -92.707031 146.394531 -84.429688 L 146.394531 -84.195312 C 146.394531 -74.734375 143.082031 -67.167969 98.148438 -67.167969 Z M 98.148438 -67.167969 "/></g></g></g><g fill="#ffffff" fill-opacity="1"><g transform="translate(1088.644513, 469.949008)"><g/></g></g><g fill="#ffffff" fill-opacity="1"><g transform="translate(1183.244979, 469.949008)"><g><path d="M 242.652344 -141.902344 L 208.359375 -141.902344 L 135.515625 -23.648438 L 63.617188 -141.902344 L 29.328125 -141.902344 L 29.328125 0 L 53.449219 0 L 53.449219 -111.863281 L 121.324219 -0.472656 L 120.851562 0 L 149.941406 0 L 149.707031 -0.472656 L 218.527344 -112.339844 L 218.527344 0 L 242.652344 0 Z M 242.652344 -141.902344 "/></g></g></g><g fill="#ffffff" fill-opacity="1"><g transform="translate(1455.221248, 469.949008)"><g><path d="M 135.277344 -118.25 L 83.011719 -23.886719 L 31.21875 -118.25 L 4.019531 -118.25 L 69.769531 0 L 66.21875 6.621094 C 61.015625 16.082031 52.265625 17.972656 46.589844 17.972656 C 40.914062 17.972656 34.054688 17.265625 27.90625 14.425781 L 20.339844 35.710938 C 26.015625 38.3125 35.238281 40.207031 46.589844 40.207031 C 66.21875 40.207031 78.753906 34.527344 91.761719 10.878906 L 162.476562 -118.25 Z M 135.277344 -118.25 "/></g></g></g><g fill="#ffffff" fill-opacity="1"><g transform="translate(1621.718136, 469.949008)"><g><path d="M 97.675781 -119.90625 C 35.238281 -119.90625 25.542969 -92.945312 25.542969 -77.335938 L 49.664062 -77.335938 C 49.664062 -90.816406 58.414062 -98.621094 97.675781 -98.621094 C 144.976562 -98.621094 147.105469 -84.429688 147.105469 -79.9375 C 147.105469 -77.097656 131.96875 -74.496094 85.613281 -70.949219 C 42.808594 -67.640625 21.285156 -61.492188 21.285156 -33.347656 L 21.285156 -29.800781 C 21.285156 -17.738281 28.378906 2.363281 78.992188 2.363281 C 119.667969 2.363281 139.0625 -6.621094 147.8125 -15.84375 C 147.8125 -8.988281 148.523438 -4.019531 149.46875 0 L 173.59375 0 C 171.464844 -10.40625 171.226562 -15.136719 171.226562 -25.304688 L 171.226562 -80.648438 C 171.226562 -87.503906 168.152344 -119.90625 97.675781 -119.90625 Z M 78.992188 -18.921875 C 49.191406 -18.921875 45.410156 -24.359375 45.410156 -32.164062 L 45.410156 -33.347656 C 45.410156 -41.152344 48.246094 -47.0625 80.882812 -49.664062 C 89.398438 -50.375 96.492188 -51.085938 104.769531 -51.558594 C 117.304688 -52.265625 134.804688 -54.394531 147.339844 -56.761719 L 147.339844 -52.976562 C 147.339844 -31.691406 128.421875 -18.921875 78.992188 -18.921875 Z M 78.992188 -18.921875 "/></g></g></g><g fill="#ffffff" fill-opacity="1"><g transform="translate(1818.487114, 469.949008)"><g><path d="M 89.632812 -20.339844 C 84.667969 -19.394531 78.519531 -18.683594 70.949219 -18.683594 C 59.597656 -18.683594 47.300781 -24.125 47.300781 -40.679688 L 47.300781 -96.964844 L 91.289062 -96.964844 L 91.289062 -118.25 L 47.300781 -118.25 L 47.300781 -141.902344 L 23.648438 -141.902344 L 23.648438 -118.25 L 8.515625 -118.25 L 8.515625 -96.964844 L 23.648438 -96.964844 L 23.648438 -40.679688 C 23.648438 -25.542969 27.433594 2.363281 70.476562 2.363281 C 78.992188 2.363281 87.03125 0.945312 94.835938 -1.890625 Z M 89.632812 -20.339844 "/></g></g></g><g fill="#ffffff" fill-opacity="1"><g transform="translate(2013.600564, 469.949008)"><g><path d="M 161.53125 -141.902344 L -0.710938 -141.902344 L -0.710938 -118.722656 L 68.347656 -118.722656 L 68.347656 0 L 92.472656 0 L 92.472656 -118.722656 L 161.53125 -118.722656 Z M 161.53125 -141.902344 "/></g></g></g><g fill="#ffffff" fill-opacity="1"><g transform="translate(2174.184846, 469.949008)"><g><path d="M 158.929688 -118.25 L 158.929688 -76.625 C 158.929688 -50.136719 130.074219 -19.15625 96.257812 -19.15625 C 65.511719 -19.15625 47.773438 -27.433594 47.773438 -61.726562 L 47.773438 -118.25 L 23.648438 -118.25 L 23.648438 -54.160156 C 23.648438 -15.609375 52.738281 5.441406 96.257812 2.128906 C 122.035156 0 144.976562 -10.878906 158.929688 -30.035156 L 158.929688 0 L 182.578125 0 L 182.578125 -118.25 Z M 158.929688 -118.25 "/></g></g></g><g fill="#ffffff" fill-opacity="1"><g transform="translate(2382.069268, 469.949008)"><g><path d="M 118.960938 -120.378906 C 90.582031 -120.378906 64.328125 -108.082031 48.957031 -87.03125 L 48.957031 -118.25 L 25.304688 -118.25 L 25.304688 0 L 48.957031 0 L 48.957031 -41.625 C 48.957031 -68.113281 77.808594 -99.332031 118.488281 -99.332031 C 147.578125 -99.332031 169.097656 -87.503906 169.097656 -55.8125 L 169.097656 0 L 193.222656 0 L 193.222656 -60.78125 C 193.222656 -102.878906 164.132812 -120.378906 118.960938 -120.378906 Z M 118.960938 -120.378906 "/></g></g></g><g fill="#ffffff" fill-opacity="1"><g transform="translate(487.2094, 199.55023)"><g><path d="M 104.988281 -60.207031 L 112.777344 -60.207031 C 112.777344 -82.375 96.152344 -91.210938 63.953125 -91.210938 C 25.761719 -91.210938 12.132812 -81.625 12.132812 -69.195312 L 12.132812 -65.898438 C 12.132812 -50.621094 24.710938 -45.832031 60.65625 -42.085938 C 96.003906 -38.492188 104.089844 -34.296875 104.089844 -24.5625 L 104.089844 -21.867188 C 104.089844 -11.683594 88.664062 -5.992188 60.808594 -5.992188 C 32.949219 -5.992188 19.769531 -12.429688 19.769531 -31.152344 L 11.980469 -31.152344 C 11.980469 -8.984375 25.609375 1.496094 60.808594 1.496094 C 98.398438 1.496094 111.878906 -8.535156 111.878906 -20.96875 L 111.878906 -24.261719 C 111.878906 -40.738281 99.296875 -45.382812 61.554688 -49.273438 C 28.007812 -52.71875 19.917969 -57.0625 19.917969 -65.601562 L 19.917969 -68.296875 C 19.917969 -78.332031 35.046875 -83.722656 63.953125 -83.722656 C 91.511719 -83.722656 104.988281 -77.433594 104.988281 -60.207031 Z M 104.988281 -60.207031 "/></g></g></g><g fill="#ffffff" fill-opacity="1"><g transform="translate(611.962303, 199.55023)"><g><path d="M 58.261719 1.496094 C 91.359375 1.496094 106.039062 -12.582031 106.039062 -35.195312 L 106.039062 -40.589844 C 106.039062 -63.203125 91.359375 -76.234375 58.261719 -76.234375 C 25.160156 -76.234375 10.484375 -63.054688 10.484375 -40.140625 L 10.484375 -34.597656 C 10.484375 -11.980469 25.160156 1.496094 58.261719 1.496094 Z M 58.261719 -5.691406 C 30.851562 -5.691406 18.273438 -14.828125 18.273438 -34.597656 L 18.273438 -40.140625 C 18.273438 -59.910156 30.851562 -69.042969 58.261719 -69.042969 C 85.96875 -69.042969 98.25 -60.207031 98.25 -40.589844 L 98.25 -35.195312 C 98.25 -15.128906 85.519531 -5.691406 58.261719 -5.691406 Z M 58.261719 -5.691406 "/></g></g></g><g fill="#ffffff" fill-opacity="1"><g transform="translate(728.47823, 199.55023)"><g><path d="M 44.183594 -93.457031 C 49.425781 -93.457031 55.265625 -92.707031 59.910156 -91.511719 L 61.707031 -97.652344 C 56.761719 -99.449219 51.523438 -100.347656 44.183594 -100.347656 C 23.363281 -100.347656 17.824219 -88.515625 17.375 -74.886719 L -0.449219 -74.886719 L -0.449219 -67.996094 L 17.375 -67.996094 L 17.375 0 L 24.863281 0 L 24.863281 -67.996094 L 53.46875 -67.996094 L 53.46875 -74.886719 L 24.863281 -74.886719 C 25.3125 -87.765625 30.253906 -93.457031 44.183594 -93.457031 Z M 44.183594 -93.457031 "/></g></g></g><g fill="#ffffff" fill-opacity="1"><g transform="translate(781.64422, 199.55023)"><g><path d="M 58.261719 -7.636719 C 53.617188 -6.441406 49.273438 -5.691406 44.929688 -5.691406 C 28.90625 -5.691406 26.210938 -15.128906 26.210938 -25.761719 L 26.210938 -67.996094 L 57.8125 -67.996094 L 57.8125 -74.886719 L 26.210938 -74.886719 L 26.210938 -89.863281 L 18.722656 -89.863281 L 18.722656 -74.886719 L 5.390625 -74.886719 L 5.390625 -67.996094 L 18.722656 -67.996094 L 18.722656 -25.761719 C 18.722656 -16.175781 19.171875 1.496094 44.929688 1.496094 C 50.023438 1.496094 55.117188 0.597656 60.058594 -1.199219 Z M 58.261719 -7.636719 "/></g></g></g><g fill="#ffffff" fill-opacity="1"><g transform="translate(845.293667, 199.55023)"><g><path d="M 136.144531 -74.886719 L 107.6875 -8.6875 L 77.882812 -74.886719 L 69.195312 -74.886719 L 39.390625 -8.6875 L 10.933594 -74.886719 L 2.695312 -74.886719 L 34.898438 0 L 43.582031 0 L 73.539062 -66.5 L 103.492188 0 L 112.179688 0 L 144.378906 -74.886719 Z M 136.144531 -74.886719 "/></g></g></g><g fill="#ffffff" fill-opacity="1"><g transform="translate(992.51105, 199.55023)"><g><path d="M 58.113281 -76.234375 C 29.054688 -76.234375 16.175781 -65.898438 16.175781 -48.527344 L 23.964844 -48.527344 C 23.964844 -62.304688 34.449219 -69.195312 58.113281 -69.195312 C 82.375 -69.195312 93.15625 -60.65625 93.15625 -50.621094 C 93.15625 -44.480469 80.578125 -43.734375 50.773438 -41.488281 C 22.617188 -39.390625 13.480469 -35.496094 13.480469 -21.117188 L 13.480469 -17.972656 C 13.480469 -5.839844 21.269531 1.496094 46.28125 1.496094 C 70.09375 1.496094 85.96875 -5.390625 93.15625 -15.425781 C 93.15625 -10.335938 93.308594 -5.09375 94.207031 0 L 101.996094 0 C 101.097656 -5.390625 100.945312 -10.632812 100.945312 -16.027344 L 100.945312 -49.125 C 100.945312 -62.753906 89.265625 -76.234375 58.113281 -76.234375 Z M 46.28125 -5.542969 C 26.808594 -5.542969 21.269531 -10.335938 21.269531 -18.421875 L 21.269531 -20.816406 C 21.269531 -29.054688 26.808594 -32.648438 47.027344 -34.296875 C 51.671875 -34.746094 56.164062 -35.046875 60.65625 -35.347656 C 74.585938 -36.246094 87.167969 -37.292969 93.15625 -40.289062 L 93.308594 -34.296875 C 93.308594 -16.773438 77.730469 -5.542969 46.28125 -5.542969 Z M 46.28125 -5.542969 "/></g></g></g><g fill="#ffffff" fill-opacity="1"><g transform="translate(1109.176725, 199.55023)"><g><path d="M 64.550781 -76.382812 C 43.882812 -75.785156 30.253906 -67.546875 23.515625 -53.917969 L 23.515625 -74.886719 L 16.027344 -74.886719 L 16.027344 0 L 23.515625 0 L 23.515625 -30.105469 C 23.515625 -52.871094 37.59375 -69.195312 66.347656 -69.195312 C 70.992188 -69.195312 74.136719 -69.042969 77.28125 -68.746094 L 77.730469 -75.785156 C 74.734375 -76.234375 70.84375 -76.535156 64.550781 -76.382812 Z M 64.550781 -76.382812 "/></g></g></g><g fill="#ffffff" fill-opacity="1"><g transform="translate(1189.89919, 199.55023)"><g><path d="M 56.761719 1.496094 C 84.171875 1.496094 100.496094 -9.136719 102.292969 -26.808594 L 94.355469 -26.808594 C 92.558594 -12.429688 78.480469 -5.390625 56.761719 -5.390625 C 31.453125 -5.390625 17.222656 -14.828125 18.273438 -36.246094 C 31.453125 -34 46.28125 -32.648438 58.261719 -32.648438 C 81.324219 -32.648438 100.496094 -38.339844 100.496094 -52.121094 L 100.496094 -55.265625 C 100.496094 -68.296875 84.171875 -76.234375 58.410156 -76.234375 C 25.160156 -76.234375 10.484375 -62.753906 10.484375 -40.140625 L 10.484375 -34.597656 C 10.484375 -11.980469 25.160156 1.496094 56.761719 1.496094 Z M 58.410156 -39.539062 C 45.832031 -39.539062 30.253906 -41.039062 18.273438 -43.132812 C 19.320312 -59.757812 30.851562 -69.195312 58.410156 -69.195312 C 82.074219 -69.195312 92.707031 -63.351562 92.707031 -54.964844 L 92.707031 -52.570312 C 92.707031 -42.535156 76.984375 -39.539062 58.410156 -39.539062 Z M 58.410156 -39.539062 "/></g></g></g><g fill="#ffffff" fill-opacity="1"><g transform="translate(1302.670995, 199.55023)"><g/></g></g><g fill="#ffffff" fill-opacity="1"><g transform="translate(1362.576379, 199.55023)"><g><path d="M 105.738281 -82.972656 L 105.738281 -89.863281 L 18.570312 -89.863281 L 18.570312 0 L 105.738281 0 L 105.738281 -6.890625 L 26.359375 -6.890625 L 26.359375 -40.289062 L 100.199219 -40.289062 L 100.199219 -47.179688 L 26.359375 -47.179688 L 26.359375 -82.972656 Z M 105.738281 -82.972656 "/></g></g></g><g fill="#ffffff" fill-opacity="1"><g transform="translate(1477.444881, 199.55023)"><g><path d="M 65.601562 -76.234375 C 43.882812 -76.234375 30.253906 -67.996094 23.515625 -54.367188 L 23.515625 -74.886719 L 16.027344 -74.886719 L 16.027344 0 L 23.515625 0 L 23.515625 -30.105469 C 23.515625 -52.871094 37.59375 -69.195312 65.601562 -69.195312 C 88.816406 -69.195312 101.097656 -60.207031 101.097656 -39.238281 L 101.097656 0 L 108.882812 0 L 108.882812 -40.589844 C 108.882812 -63.203125 94.207031 -76.234375 65.601562 -76.234375 Z M 65.601562 -76.234375 "/></g></g></g><g fill="#ffffff" fill-opacity="1"><g transform="translate(1600.700166, 199.55023)"><g><path d="M 95.253906 -74.886719 L 95.253906 -59.460938 C 88.816406 -70.242188 75.933594 -76.234375 56.761719 -76.234375 C 25.160156 -76.234375 10.484375 -63.203125 10.484375 -40.589844 L 10.484375 -35.195312 C 10.484375 -12.582031 25.160156 1.496094 56.761719 1.496094 C 75.933594 1.496094 88.816406 -4.492188 95.253906 -15.277344 L 95.253906 -7.789062 C 95.253906 9.136719 82.675781 18.121094 55.265625 18.121094 C 39.539062 18.121094 29.054688 14.527344 21.417969 7.9375 L 16.625 14.226562 C 25.460938 21.117188 37.441406 25.460938 55.265625 25.460938 C 91.359375 25.460938 102.742188 11.980469 102.742188 -7.789062 L 102.742188 -74.886719 Z M 56.761719 -5.839844 C 31.003906 -5.839844 18.273438 -15.128906 18.273438 -35.195312 L 18.273438 -40.589844 C 18.273438 -60.207031 30.554688 -68.894531 56.761719 -68.894531 C 79.679688 -68.894531 95.253906 -59.910156 95.253906 -40.140625 L 95.253906 -34.597656 C 95.253906 -14.828125 79.679688 -5.839844 56.761719 -5.839844 Z M 56.761719 -5.839844 "/></g></g></g><g fill="#ffffff" fill-opacity="1"><g transform="translate(1719.462587, 199.55023)"><g><path d="M 17.375 -85.371094 C 21.117188 -85.371094 22.765625 -87.015625 22.765625 -89.714844 L 22.765625 -90.164062 C 22.765625 -92.859375 21.117188 -94.355469 17.375 -94.355469 C 13.628906 -94.355469 11.980469 -92.859375 11.980469 -90.164062 L 11.980469 -89.5625 C 11.980469 -87.015625 13.628906 -85.371094 17.375 -85.371094 Z M 13.480469 0 L 20.96875 0 L 20.96875 -74.886719 L 13.480469 -74.886719 Z M 13.480469 0 "/></g></g></g><g fill="#ffffff" fill-opacity="1"><g transform="translate(1753.908144, 199.55023)"><g><path d="M 65.601562 -76.234375 C 43.882812 -76.234375 30.253906 -67.996094 23.515625 -54.367188 L 23.515625 -74.886719 L 16.027344 -74.886719 L 16.027344 0 L 23.515625 0 L 23.515625 -30.105469 C 23.515625 -52.871094 37.59375 -69.195312 65.601562 -69.195312 C 88.816406 -69.195312 101.097656 -60.207031 101.097656 -39.238281 L 101.097656 0 L 108.882812 0 L 108.882812 -40.589844 C 108.882812 -63.203125 94.207031 -76.234375 65.601562 -76.234375 Z M 65.601562 -76.234375 "/></g></g></g><g fill="#ffffff" fill-opacity="1"><g transform="translate(1877.163429, 199.55023)"><g><path d="M 56.761719 1.496094 C 84.171875 1.496094 100.496094 -9.136719 102.292969 -26.808594 L 94.355469 -26.808594 C 92.558594 -12.429688 78.480469 -5.390625 56.761719 -5.390625 C 31.453125 -5.390625 17.222656 -14.828125 18.273438 -36.246094 C 31.453125 -34 46.28125 -32.648438 58.261719 -32.648438 C 81.324219 -32.648438 100.496094 -38.339844 100.496094 -52.121094 L 100.496094 -55.265625 C 100.496094 -68.296875 84.171875 -76.234375 58.410156 -76.234375 C 25.160156 -76.234375 10.484375 -62.753906 10.484375 -40.140625 L 10.484375 -34.597656 C 10.484375 -11.980469 25.160156 1.496094 56.761719 1.496094 Z M 58.410156 -39.539062 C 45.832031 -39.539062 30.253906 -41.039062 18.273438 -43.132812 C 19.320312 -59.757812 30.851562 -69.195312 58.410156 -69.195312 C 82.074219 -69.195312 92.707031 -63.351562 92.707031 -54.964844 L 92.707031 -52.570312 C 92.707031 -42.535156 76.984375 -39.539062 58.410156 -39.539062 Z M 58.410156 -39.539062 "/></g></g></g><g fill="#ffffff" fill-opacity="1"><g transform="translate(1989.935234, 199.55023)"><g><path d="M 56.761719 1.496094 C 84.171875 1.496094 100.496094 -9.136719 102.292969 -26.808594 L 94.355469 -26.808594 C 92.558594 -12.429688 78.480469 -5.390625 56.761719 -5.390625 C 31.453125 -5.390625 17.222656 -14.828125 18.273438 -36.246094 C 31.453125 -34 46.28125 -32.648438 58.261719 -32.648438 C 81.324219 -32.648438 100.496094 -38.339844 100.496094 -52.121094 L 100.496094 -55.265625 C 100.496094 -68.296875 84.171875 -76.234375 58.410156 -76.234375 C 25.160156 -76.234375 10.484375 -62.753906 10.484375 -40.140625 L 10.484375 -34.597656 C 10.484375 -11.980469 25.160156 1.496094 56.761719 1.496094 Z M 58.410156 -39.539062 C 45.832031 -39.539062 30.253906 -41.039062 18.273438 -43.132812 C 19.320312 -59.757812 30.851562 -69.195312 58.410156 -69.195312 C 82.074219 -69.195312 92.707031 -63.351562 92.707031 -54.964844 L 92.707031 -52.570312 C 92.707031 -42.535156 76.984375 -39.539062 58.410156 -39.539062 Z M 58.410156 -39.539062 "/></g></g></g><g fill="#ffffff" fill-opacity="1"><g transform="translate(2102.707039, 199.55023)"><g><path d="M 64.550781 -76.382812 C 43.882812 -75.785156 30.253906 -67.546875 23.515625 -53.917969 L 23.515625 -74.886719 L 16.027344 -74.886719 L 16.027344 0 L 23.515625 0 L 23.515625 -30.105469 C 23.515625 -52.871094 37.59375 -69.195312 66.347656 -69.195312 C 70.992188 -69.195312 74.136719 -69.042969 77.28125 -68.746094 L 77.730469 -75.785156 C 74.734375 -76.234375 70.84375 -76.535156 64.550781 -76.382812 Z M 64.550781 -76.382812 "/></g></g></g></svg>